{"title":"Hotel Transylvania 2012 CAM XviD-NoGRP","uid":7707751,"size":1220790506,"categoryP":"video","categoryS":"movies","magnet":"?xt=urn:btih:19a00da4ccac08213362f5a7d3ba7c76ce5991ec&amp;dn=Hotel+Transylvania+2012+CAM+XviD-NoGRP&amp;tr=udp%3A%2F%2Ftracker.openbittorrent.com%3A80&amp;tr=udp%3A%2F%2Fopen.demonii.com%3A1337&amp;tr=udp%3A%2F%2Ftracker.coppersurfer.tk%3A6969&amp;tr=udp%3A%2F%2Fexodus.desync.com%3A6969","seeders":11,"leechers":1,"uploader":"HeroMaster","files":-1,"time":1349728508,"description":"Hotel Transylvania 2012 CAM XviD-NoGRP\n\nDracula, who operates a high-end resort away from the human world, goes into overprotective mode when a\nboy discovers the resort and falls for the count's teen-aged daughter.\n &lt;a href=&quot;\nhttp://www.imdb.com/title/tt0837562/&quot; rel=&quot;nofollow&quot; target=&quot;_NEW&quot;&gt;\nhttp://www.imdb.com/title/tt0837562/&lt;/a&gt;\n\normat : AVI\nFormat/Info : Audio Video Interleave\nFormat profile : OpenDML\nFile size : 1.14 GiB\nDuration : 1h 35mn\nOverall bit rate : 1 706 Kbps\nWriting application : Lavf52.57.1\n\nVideo\nID : 0\nFormat : MPEG-4 Visual\nCodec ID : FMP4\nDuration : 1h 35mn\nBit rate : 1 561 Kbps\nWidth : 720 pixels\nHeight : 480 pixels\nDisplay aspect ratio : 3:2\nFrame rate : 29.970 fps\nStandard : NTSC\nColor space : YUV\nChroma subsampling : 4:2:0\nCompression mode : Lossy\nBits/(Pixel*Frame) : 0.151\nStream size : 1.04 GiB (91%)\n\nAudio\nID : 1\nFormat : MPEG Audio\nFormat version : Version 1\nFormat profile : Layer 3\nMode : Joint stereo\nMode extension : MS Stereo\nCodec ID : 55\nCodec ID/Hint : MP3\nDuration : 1h 35mn\nBit rate mode : Constant\nBit rate : 128 Kbps\nChannel(s) : 2 channels\nSampling rate : 48.0 KHz\nCompression mode : Lossy\nStream size : 87.3 MiB (8%)\nAlignment : Aligned on interleaves\nInterleave, duration : 24 ms (0.72 video frame)\n\n\nPoster:\n\n &lt;a href=&quot;\nhttp://www.shotpix.com/images/03505023359270753281.jpg&quot; rel=&quot;nofollow&quot; target=&quot;_NEW&quot;&gt;\nhttp://www.shotpix.com/images/03505023359270753281.jpg&lt;/a&gt;\n\n\nScreenshots:\n\n &lt;a href=&quot;\nhttp://www.shotpix.com/images/32194051676013945313.png&quot; rel=&quot;nofollow&quot; target=&quot;_NEW&quot;&gt;\nhttp://www.shotpix.com/images/32194051676013945313.png&lt;/a&gt;\n\n &lt;a href=&quot;\nhttp://www.shotpix.com/images/11094631965038071451.png&quot; rel=&quot;nofollow&quot; target=&quot;_NEW&quot;&gt;\nhttp://www.shotpix.com/images/11094631965038071451.png&lt;/a&gt;\n\n &lt;a href=&quot;\nhttp://www.shotpix.com/images/29037317771317948599.png&quot; rel=&quot;nofollow&quot; target=&quot;_NEW&quot;&gt;\nhttp://www.shotpix.com/images/29037317771317948599.png&lt;/a&gt;\n\n\nENJOY!","torrent":{"xt":"urn:btih:19a00da4ccac08213362f5a7d3ba7c76ce5991ec","amp;dn":"Hotel+Transylvania+2012+CAM+XviD-NoGRP","amp;tr":["udp%3A%2F%2Ftracker.openbittorrent.com%3A80","udp%3A%2F%2Fopen.demonii.com%3A1337","udp%3A%2F%2Ftracker.coppersurfer.tk%3A6969","udp%3A%2F%2Fexodus.desync.com%3A6969"],"infoHash":"19a00da4ccac08213362f5a7d3ba7c76ce5991ec","infoHashBuffer":{"type":"Buffer","data":[25,160,13,164,204,172,8,33,51,98,245,167,211,186,124,118,206,89,145,236]},"announce":[],"urlList":[]}}